<svg width="25" height="24" viewBox="0 0 25 24" fill="none" xmlns="http://www.w3.org/2000/svg">
<path d="M5.24659 2.66785C5.24624 3.37506 4.96953 4.05316 4.47732 4.55298C3.98511 5.05279 3.31772 5.33339 2.62198 5.33304C1.92624 5.33268 1.25914 5.05141 0.767418 4.55109C0.275701 4.05077 -0.000347542 3.37239 3.28386e-07 2.66519C0.000348199 1.95798 0.277064 1.27988 0.769273 0.780063C1.26148 0.280243 1.92887 -0.000353269 2.62461 3.33797e-07C3.32035 0.000353936 3.98746 0.281629 4.47917 0.781948C4.97089 1.28227 5.24694 1.96065 5.24659 2.66785ZM5.32529 7.30759H0.0786991V24H5.32529V7.30759ZM13.6149 7.30759H8.39454V24H13.5624V15.2405C13.5624 10.3608 19.819 9.90745 19.819 15.2405V24H25V13.4273C25 5.20104 15.7398 5.50769 13.5624 9.54747L13.6149 7.30759Z" fill="white"/>
</svg>
