<svg width="27" height="20" viewBox="0 0 27 20" fill="none" xmlns="http://www.w3.org/2000/svg">
<path d="M10.8 14.0714L17.8065 10L10.8 5.92857V14.0714ZM26.406 3.445C26.5815 4.08286 26.703 4.93786 26.784 6.02357C26.8785 7.10928 26.919 8.04571 26.919 8.86L27 10C27 12.9721 26.784 15.1571 26.406 16.555C26.0685 17.7764 25.2855 18.5636 24.0705 18.9029C23.436 19.0793 22.275 19.2014 20.493 19.2829C18.738 19.3779 17.1315 19.4186 15.6465 19.4186L13.5 19.5C7.8435 19.5 4.32 19.2829 2.9295 18.9029C1.7145 18.5636 0.9315 17.7764 0.594 16.555C0.4185 15.9171 0.297 15.0621 0.216 13.9764C0.1215 12.8907 0.0809999 11.9543 0.0809999 11.14L0 10C0 7.02786 0.216 4.84286 0.594 3.445C0.9315 2.22357 1.7145 1.43643 2.9295 1.09714C3.564 0.920714 4.725 0.798571 6.507 0.717143C8.262 0.622143 9.8685 0.581428 11.3535 0.581428L13.5 0.5C19.1565 0.5 22.68 0.717143 24.0705 1.09714C25.2855 1.43643 26.0685 2.22357 26.406 3.445Z" fill="white"/>
</svg>
